<svg width="333" height="103" viewBox="0 0 333 103" fill="none" xmlns="http://www.w3.org/2000/svg">
<g clip-path="url(#clip0_39_314)">
<path d="M51.34 0.209961H50.87C37.88 0.719961 0.179993 36.58 0.179993 51.17C0.179993 65.76 37.88 101.62 50.87 102.17H51.34C64.34 101.66 102.03 65.81 102.03 51.17C102.03 36.53 64.34 0.719961 51.34 0.209961Z" fill="#FFC629"/>
<path d="M50 0H49.55C36.85 0.51 0 35.56 0 49.82C0 64.08 36.85 99.14 49.56 99.64H50C62.71 99.14 99.56 64.09 99.56 49.82C99.56 35.55 62.72 0.51 50 0Z" fill="white"/>
<path d="M48.79 0.329956H48.35C36 0.819956 0 35 0 48.93C0 62.86 36 97.05 48.35 97.54H48.79C61.19 97.05 97.14 62.85 97.14 48.93C97.14 35.01 61.19 0.819956 48.79 0.329956Z" fill="#CF3339"/>
<path d="M51.89 50.68H63.95C65.5337 49.6783 66.6667 48.1008 67.11 46.28H63.18H54.18C53.8919 46.2333 53.597 46.2502 53.3161 46.3296C53.0352 46.4089 52.775 46.5488 52.5539 46.7394C52.3329 46.93 52.1562 47.1667 52.0363 47.4328C51.9164 47.699 51.8562 47.9881 51.86 48.28C51.86 54.92 51.86 67.74 51.86 67.74C51.86 67.74 51.5 67.74 50.28 67.74H42.12C29.02 58.51 10.21 36.88 10.21 36.88C9.63999 36.28 8.01999 34.37 8.01999 34.37L25.86 34.31H28.31C33.67 40.8 38.86 46.15 38.86 46.15C38.9524 46.2781 39.0834 46.3733 39.2337 46.4217C39.3841 46.47 39.546 46.469 39.6958 46.4187C39.8455 46.3684 39.9752 46.2715 40.066 46.1422C40.1567 46.0129 40.2036 45.8579 40.2 45.7C40.2 43.05 40.2 40.7 40.2 38.21C40.2618 37.1693 40.703 36.1874 41.4402 35.4503C42.1774 34.7131 43.1593 34.2718 44.2 34.21L64.43 34.15C75.57 34.15 79.23 42.6 79.67 45.76C80.13 49.12 80.09 53.38 75.1 58.45C74.77 58.77 74.78 59.19 75.29 59.57L85.83 67.57H83.83H68.12C61.4139 63.3475 55.842 57.5491 51.89 50.68Z" fill="white"/>
<path d="M72 99.74C72.0094 100.053 71.9558 100.364 71.8423 100.655C71.7287 100.947 71.5577 101.213 71.3393 101.437C71.121 101.661 70.8597 101.838 70.5712 101.959C70.2827 102.08 69.9728 102.141 69.66 102.14C69.0314 102.14 68.4286 101.89 67.9842 101.446C67.5397 101.001 67.29 100.399 67.29 99.77C67.29 99.1414 67.5397 98.5386 67.9842 98.0941C68.4286 97.6497 69.0314 97.4 69.66 97.4C69.9684 97.3959 70.2745 97.4537 70.5602 97.5699C70.846 97.6861 71.1055 97.8583 71.3236 98.0764C71.5417 98.2945 71.7139 98.554 71.8301 98.8398C71.9463 99.1255 72.004 99.4316 72 99.74ZM67.78 99.74C67.772 99.9932 67.8149 100.245 67.9063 100.482C67.9977 100.718 68.1356 100.933 68.3119 101.115C68.4882 101.297 68.6993 101.442 68.9326 101.541C69.1659 101.639 69.4167 101.69 69.67 101.69C69.9191 101.686 70.1648 101.632 70.3925 101.531C70.6202 101.43 70.8252 101.285 70.9952 101.102C71.1651 100.92 71.2966 100.706 71.3816 100.472C71.4666 100.238 71.5035 99.9887 71.49 99.74C71.5087 99.4849 71.4747 99.2287 71.39 98.9874C71.3052 98.7462 71.1716 98.5249 70.9976 98.3376C70.8235 98.1502 70.6126 98.0008 70.3782 97.8986C70.1437 97.7964 69.8908 97.7437 69.635 97.7437C69.3793 97.7437 69.1263 97.7964 68.8918 97.8986C68.6574 98.0008 68.4465 98.1502 68.2725 98.3376C68.0984 98.5249 67.9648 98.7462 67.8801 98.9874C67.7953 99.2287 67.7613 99.4849 67.78 99.74ZM69.23 101.04H68.78V98.59C69.0598 98.5342 69.3447 98.5074 69.63 98.51C69.898 98.4798 70.1678 98.5472 70.39 98.7C70.4703 98.7626 70.5347 98.8431 70.5781 98.9352C70.6215 99.0273 70.6427 99.1282 70.64 99.23C70.6337 99.3641 70.5847 99.4928 70.5002 99.5971C70.4156 99.7014 70.2999 99.776 70.17 99.81C70.2831 99.8692 70.3792 99.9563 70.4492 100.063C70.5192 100.17 70.5608 100.293 70.57 100.42C70.593 100.631 70.6576 100.835 70.76 101.02H70.29C70.1869 100.823 70.1191 100.61 70.09 100.39C70.03 100.11 69.87 99.99 69.53 99.99H69.24L69.23 101.04ZM69.23 99.65H69.53C69.86 99.65 70.16 99.54 70.16 99.26C70.16 98.98 70 98.84 69.57 98.84C69.4536 98.8297 69.3365 98.8297 69.22 98.84L69.23 99.65Z" fill="#CF3339"/>
<path d="M121.88 62L111.88 39.09H119.15L125.37 54.09L131.54 39.09H138.77L128.82 62H121.88Z" fill="#CF3339"/>
<path d="M163.88 39.49V62H157.23V60.4C155.268 61.9369 152.842 62.7619 150.35 62.74C148.863 62.7895 147.383 62.5156 146.012 61.9372C144.641 61.3588 143.412 60.4897 142.41 59.39C140.273 56.9171 139.173 53.7143 139.34 50.45C139.49 43.03 143.7 38.39 150.82 38.39C155.191 38.5023 159.552 38.8695 163.88 39.49ZM145.88 50.64C145.88 54.51 148.08 57.19 151.48 57.19C153.612 57.1486 155.661 56.3512 157.26 54.94V44.18C155.26 43.99 153.44 43.89 151.91 43.89C147.87 43.89 145.85 46.14 145.85 50.64H145.88Z" fill="#CF3339"/>
<path d="M191.06 40.83C191.942 41.6309 192.639 42.6153 193.1 43.714C193.561 44.8128 193.776 45.9993 193.73 47.19V62H187.09V49.16C187.136 48.5378 187.049 47.9129 186.836 47.3265C186.623 46.7401 186.288 46.2054 185.854 45.7576C185.419 45.3099 184.895 44.9592 184.315 44.7287C183.735 44.4981 183.113 44.3929 182.49 44.42C181.11 44.42 179.34 44.52 177.09 44.75V62H170.44V39.49C174.952 38.8086 179.507 38.4411 184.07 38.39C186.628 38.2687 189.133 39.1433 191.06 40.83Z" fill="#CF3339"/>
<path d="M214.88 44.9C212.25 44.9 209.97 44.96 208.1 45.08C207.734 45.1029 207.39 45.2647 207.139 45.5323C206.889 45.7999 206.749 46.1532 206.75 46.52V62H200.1V42.31C200.099 41.6192 200.346 40.9508 200.795 40.4262C201.245 39.9015 201.867 39.5552 202.55 39.45C202.55 39.45 212.16 38.39 214.88 38.39V44.9Z" fill="#CF3339"/>
<path d="M237.13 41.12C238.171 42.0088 239.003 43.1172 239.565 44.3655C240.127 45.6139 240.405 46.9712 240.38 48.34C240.388 49.9013 240.26 51.4604 240 53H224C224.91 55.63 227.11 57 230.51 57C233.251 56.8572 235.973 56.4588 238.64 55.81L239.55 61.02C236.581 62.0768 233.469 62.6737 230.32 62.79C226.06 62.79 222.81 61.64 220.46 59.39C219.316 58.2357 218.421 56.8595 217.829 55.346C217.238 53.8325 216.962 52.2139 217.02 50.59C217.051 48.2638 217.737 45.9934 219 44.0395C220.262 42.0856 222.051 40.5274 224.159 39.5438C226.267 38.5601 228.61 38.1909 230.918 38.4786C233.227 38.7662 235.408 39.6991 237.21 41.17L237.13 41.12ZM223.64 48.25H234.45C234.429 47.5891 234.274 46.9392 233.996 46.3395C233.717 45.7398 233.321 45.2024 232.829 44.7598C232.338 44.3171 231.763 43.9783 231.137 43.7635C230.512 43.5487 229.85 43.4625 229.19 43.51C227.844 43.4805 226.535 43.9474 225.511 44.8216C224.487 45.6958 223.821 46.9161 223.64 48.25Z" fill="#CF3339"/>
<path d="M268.32 61.54C263.817 62.3294 259.252 62.7143 254.68 62.69C248.267 62.69 245.063 59.7733 245.07 53.94V39.11H251.72V52.36C251.72 55.52 253.25 57.1 256.26 57.1C258.068 57.0808 259.874 56.9673 261.67 56.76V39.11H268.32V61.54Z" fill="#CF3339"/>
<path d="M274.63 55.4201C277.578 56.6403 280.721 57.3178 283.91 57.4201C286.54 57.4201 287.84 56.8501 287.84 55.6501C287.84 54.6501 286.84 54.0701 285.3 53.7401C284.532 53.5273 283.75 53.3669 282.96 53.2601L281.71 53.0001C276.31 52.0001 273.82 50.0001 273.82 46.1101C273.82 41.3301 277.7 38.4601 283.87 38.4601C287.152 38.4384 290.409 39.0214 293.48 40.1801L292 45.1801C289.288 44.3005 286.476 43.7695 283.63 43.6001C281.52 43.6001 280.33 44.3701 280.33 45.6001C280.33 46.8301 281.09 47.0301 282.43 47.4601C283.24 47.6501 283.63 47.7001 284.77 47.9401L286.11 48.1801C291.71 49.3301 294.05 50.9501 294.05 55.0201C294.05 60.1401 290.05 62.7201 283.67 62.7201C280.114 62.7185 276.592 62.0397 273.29 60.7201L274.63 55.4201Z" fill="#CF3339"/>
<path d="M317.45 41.1199C318.491 42.0087 319.323 43.1171 319.885 44.3655C320.447 45.6139 320.725 46.9712 320.7 48.3399C320.695 49.8963 320.551 51.4491 320.27 52.9799H304.27C305.17 55.6099 307.38 56.9799 310.77 56.9799C313.511 56.8372 316.233 56.4388 318.9 55.7899L319.81 60.9999C316.841 62.0568 313.729 62.6537 310.58 62.7699C306.32 62.7699 303.07 61.6199 300.73 59.3699C299.583 58.2176 298.685 56.8419 298.091 55.3282C297.498 53.8144 297.222 52.1948 297.28 50.5699C297.311 48.2437 297.997 45.9734 299.26 44.0195C300.522 42.0656 302.311 40.5074 304.419 39.5237C306.527 38.5401 308.87 38.1709 311.178 38.4586C313.487 38.7462 315.668 39.679 317.47 41.1499L317.45 41.1199ZM304 48.2499H314.81C314.789 47.589 314.634 46.9392 314.356 46.3395C314.077 45.7397 313.681 45.2024 313.189 44.7598C312.698 44.3171 312.123 43.9782 311.497 43.7635C310.872 43.5487 310.21 43.4625 309.55 43.5099C308.204 43.4805 306.895 43.9473 305.871 44.8215C304.847 45.6958 304.181 46.9161 304 48.2499Z" fill="#CF3339"/>
<path d="M332.38 62H325.73V28H332.38V62Z" fill="#CF3339"/>
</g>
<defs>
<clipPath id="clip0_39_314">
<rect width="332.38" height="102.14" fill="white"/>
</clipPath>
</defs>
</svg>
